<?xml version="1.0" standalone="no"?><!DOCTYPE svg PUBLIC "-//W3C//DTD SVG 1.1//EN" "http://www.w3.org/Graphics/SVG/1.1/DTD/svg11.dtd"><svg t="1751556398050" class="icon" viewBox="0 0 1024 1024" version="1.1" xmlns="http://www.w3.org/2000/svg" p-id="2092" xmlns:xlink="http://www.w3.org/1999/xlink" width="200" height="200"><path d="M622.08 330.24h-15.872v79.872h47.616v-31.744h-31.744v-48.128z m-143.36 191.488h223.232V457.728l64-223.232v-31.744h-207.36L542.72 330.24h-47.616V266.24h-47.616l-15.872 64H384V266.24l-112.64-15.872-8.192 31.744h24.064v31.744h-31.744l-15.872 64-99.84 12.288-14.848 173.056 140.8-14.848 53.76 59.392-5.12 73.728h100.864v-79.872l15.872-47.616c0-0.512 47.616-32.256 47.616-32.256z m111.616-287.232h143.36l-59.392 207.36h-84.48c0.512 0 0.512-207.36 0.512-207.36zM159.744 505.344h-15.872V425.984h15.872v79.36z m32.256-31.744h-15.872v-47.616h15.872v47.616z m175.104 15.872H287.232V394.24h191.488L367.104 489.472z m230.912 167.424h46.08l7.68 28.16 54.272 18.432 45.568-12.288 23.552-39.424 37.888 23.04 62.464-16.896-16.384-61.952-244.736-50.176 20.992 78.336h-37.888" fill="#737274" p-id="2093"></path><path d="M217.6 521.728c-68.608 0-124.416 55.808-124.416 124.416s55.808 124.416 124.416 124.416 124.416-55.808 124.416-124.416-55.808-124.416-124.416-124.416z m0 211.456c-48.128 0-87.552-38.912-87.552-87.552S168.96 558.08 217.6 558.08c48.128 0 87.552 38.912 87.552 87.552s-39.424 87.552-87.552 87.552zM499.712 558.08c-58.88 0-106.496 47.616-106.496 106.496s47.616 106.496 106.496 106.496 106.496-47.616 106.496-106.496-47.616-106.496-106.496-106.496z m0 178.688c-39.936 0-72.704-32.256-72.704-72.704s32.256-72.704 72.704-72.704c39.936 0 72.704 32.256 72.704 72.704s-32.768 72.704-72.704 72.704z" fill="#737274" p-id="2094"></path></svg>